<mxfile host="app.diagrams.net" modified="2023-05-07T05:12:28.529Z" agent="Mozilla/5.0 (Windows NT 10.0; Win64; x64) AppleWebKit/537.36 (KHTML, like Gecko) Chrome/113.0.0.0 Safari/537.36" etag="9AQxJKI6NXrwI26ZJtvK" version="21.2.9" type="device">
  <diagram name="Page-1" id="1J1NQNj4FVKn4LCwfoBr">
    <mxGraphModel dx="1843" dy="1219" grid="1" gridSize="15" guides="1" tooltips="1" connect="1" arrows="1" fold="1" page="0" pageScale="1" pageWidth="827" pageHeight="1169" background="none" math="0" shadow="0">
      <root>
        <mxCell id="0" />
        <mxCell id="1" parent="0" />
        <mxCell id="DNFFxkKW47A7L2v8q61D-104" value="" style="rounded=0;whiteSpace=wrap;html=1;fillColor=none;" parent="1" vertex="1">
          <mxGeometry x="135" y="255" width="540" height="570" as="geometry" />
        </mxCell>
        <mxCell id="DNFFxkKW47A7L2v8q61D-40" style="edgeStyle=orthogonalEdgeStyle;rounded=0;orthogonalLoop=1;jettySize=auto;html=1;exitX=0.5;exitY=1;exitDx=0;exitDy=0;" parent="1" source="DNFFxkKW47A7L2v8q61D-32" edge="1">
          <mxGeometry relative="1" as="geometry">
            <mxPoint x="1020" y="660" as="targetPoint" />
          </mxGeometry>
        </mxCell>
        <mxCell id="DNFFxkKW47A7L2v8q61D-105" style="rounded=0;orthogonalLoop=1;jettySize=auto;html=1;exitX=0;exitY=0.25;exitDx=0;exitDy=0;entryX=1;entryY=0.25;entryDx=0;entryDy=0;dashed=1;endArrow=none;endFill=0;" parent="1" source="DNFFxkKW47A7L2v8q61D-32" target="DNFFxkKW47A7L2v8q61D-104" edge="1">
          <mxGeometry relative="1" as="geometry" />
        </mxCell>
        <mxCell id="DNFFxkKW47A7L2v8q61D-106" style="rounded=0;orthogonalLoop=1;jettySize=auto;html=1;exitX=0;exitY=0.75;exitDx=0;exitDy=0;entryX=1;entryY=0.75;entryDx=0;entryDy=0;endArrow=none;dashed=1;endFill=0;" parent="1" source="DNFFxkKW47A7L2v8q61D-32" target="DNFFxkKW47A7L2v8q61D-104" edge="1">
          <mxGeometry relative="1" as="geometry" />
        </mxCell>
        <mxCell id="DNFFxkKW47A7L2v8q61D-32" value="" style="rounded=0;whiteSpace=wrap;html=1;fillColor=none;strokeColor=default;" parent="1" vertex="1">
          <mxGeometry x="840" y="465" width="360" height="120" as="geometry" />
        </mxCell>
        <mxCell id="DNFFxkKW47A7L2v8q61D-28" style="edgeStyle=orthogonalEdgeStyle;rounded=0;orthogonalLoop=1;jettySize=auto;html=1;exitX=0.5;exitY=1;exitDx=0;exitDy=0;entryX=0.5;entryY=0;entryDx=0;entryDy=0;" parent="1" source="DNFFxkKW47A7L2v8q61D-20" edge="1">
          <mxGeometry relative="1" as="geometry">
            <mxPoint x="1020" y="330" as="targetPoint" />
          </mxGeometry>
        </mxCell>
        <mxCell id="DNFFxkKW47A7L2v8q61D-64" style="rounded=0;orthogonalLoop=1;jettySize=auto;html=1;exitX=1;exitY=0.25;exitDx=0;exitDy=0;entryX=0;entryY=0.25;entryDx=0;entryDy=0;dashed=1;endArrow=none;endFill=0;" parent="1" source="DNFFxkKW47A7L2v8q61D-20" target="DNFFxkKW47A7L2v8q61D-57" edge="1">
          <mxGeometry relative="1" as="geometry" />
        </mxCell>
        <mxCell id="DNFFxkKW47A7L2v8q61D-66" style="rounded=0;orthogonalLoop=1;jettySize=auto;html=1;exitX=1;exitY=0.75;exitDx=0;exitDy=0;entryX=0;entryY=0.75;entryDx=0;entryDy=0;endArrow=none;endFill=0;dashed=1;" parent="1" source="DNFFxkKW47A7L2v8q61D-20" target="DNFFxkKW47A7L2v8q61D-57" edge="1">
          <mxGeometry relative="1" as="geometry" />
        </mxCell>
        <mxCell id="DNFFxkKW47A7L2v8q61D-20" value="" style="rounded=0;whiteSpace=wrap;html=1;fillColor=none;align=left;" parent="1" vertex="1">
          <mxGeometry x="840" y="165" width="360" height="105" as="geometry" />
        </mxCell>
        <mxCell id="DNFFxkKW47A7L2v8q61D-25" style="edgeStyle=orthogonalEdgeStyle;rounded=0;orthogonalLoop=1;jettySize=auto;html=1;exitX=0.5;exitY=1;exitDx=0;exitDy=0;entryX=0.5;entryY=0;entryDx=0;entryDy=0;" parent="1" source="DNFFxkKW47A7L2v8q61D-19" target="DNFFxkKW47A7L2v8q61D-20" edge="1">
          <mxGeometry relative="1" as="geometry" />
        </mxCell>
        <mxCell id="DNFFxkKW47A7L2v8q61D-19" value="&lt;h1&gt;IMAGE&lt;/h1&gt;" style="rounded=1;whiteSpace=wrap;html=1;fontFamily=Helvetica;fontSize=11;fillColor=#dae8fc;strokeColor=#6c8ebf;" parent="1" vertex="1">
          <mxGeometry x="960" y="60" width="120" height="60" as="geometry" />
        </mxCell>
        <mxCell id="DNFFxkKW47A7L2v8q61D-21" value="Scene Detection" style="rounded=0;whiteSpace=wrap;html=1;fillColor=#ffe6cc;strokeColor=#d79b00;" parent="1" vertex="1">
          <mxGeometry x="870" y="195" width="90" height="60" as="geometry" />
        </mxCell>
        <mxCell id="DNFFxkKW47A7L2v8q61D-22" value="Object Coordinates" style="rounded=0;whiteSpace=wrap;html=1;fillColor=#ffe6cc;strokeColor=#d79b00;" parent="1" vertex="1">
          <mxGeometry x="975" y="195" width="90" height="60" as="geometry" />
        </mxCell>
        <mxCell id="DNFFxkKW47A7L2v8q61D-23" value="Object &lt;br&gt;Color" style="rounded=0;whiteSpace=wrap;html=1;fillColor=#ffe6cc;strokeColor=#d79b00;" parent="1" vertex="1">
          <mxGeometry x="1080" y="195" width="90" height="60" as="geometry" />
        </mxCell>
        <mxCell id="DNFFxkKW47A7L2v8q61D-26" value="&lt;b&gt;1. Feature Extraction&lt;/b&gt;" style="text;html=1;strokeColor=none;fillColor=none;align=center;verticalAlign=middle;whiteSpace=wrap;rounded=0;" parent="1" vertex="1">
          <mxGeometry x="870" y="165" width="300" height="30" as="geometry" />
        </mxCell>
        <mxCell id="DNFFxkKW47A7L2v8q61D-33" style="edgeStyle=orthogonalEdgeStyle;rounded=0;orthogonalLoop=1;jettySize=auto;html=1;exitX=0.5;exitY=1;exitDx=0;exitDy=0;entryX=0.5;entryY=0;entryDx=0;entryDy=0;" parent="1" target="DNFFxkKW47A7L2v8q61D-32" edge="1">
          <mxGeometry relative="1" as="geometry">
            <mxPoint x="1020" y="390" as="sourcePoint" />
          </mxGeometry>
        </mxCell>
        <mxCell id="DNFFxkKW47A7L2v8q61D-29" style="edgeStyle=orthogonalEdgeStyle;rounded=0;orthogonalLoop=1;jettySize=auto;html=1;exitX=1;exitY=0.5;exitDx=0;exitDy=0;entryX=0;entryY=0.5;entryDx=0;entryDy=0;" parent="1" source="DNFFxkKW47A7L2v8q61D-30" target="DNFFxkKW47A7L2v8q61D-31" edge="1">
          <mxGeometry relative="1" as="geometry" />
        </mxCell>
        <mxCell id="DNFFxkKW47A7L2v8q61D-36" value="" style="edgeStyle=orthogonalEdgeStyle;rounded=0;orthogonalLoop=1;jettySize=auto;html=1;" parent="1" source="DNFFxkKW47A7L2v8q61D-30" edge="1">
          <mxGeometry relative="1" as="geometry">
            <mxPoint x="1070" y="525" as="targetPoint" />
          </mxGeometry>
        </mxCell>
        <mxCell id="DNFFxkKW47A7L2v8q61D-30" value="&lt;h2&gt;ENCODER&lt;/h2&gt;" style="rounded=0;whiteSpace=wrap;html=1;fontFamily=Helvetica;fontSize=11;fillColor=#ffe6cc;strokeColor=#d79b00;" parent="1" vertex="1">
          <mxGeometry x="870" y="495" width="120" height="60" as="geometry" />
        </mxCell>
        <mxCell id="DNFFxkKW47A7L2v8q61D-31" value="&lt;h2&gt;DECODER&lt;/h2&gt;" style="rounded=0;whiteSpace=wrap;html=1;fontFamily=Helvetica;fontSize=11;fillColor=#ffe6cc;strokeColor=#d79b00;" parent="1" vertex="1">
          <mxGeometry x="1050" y="495" width="120" height="60" as="geometry" />
        </mxCell>
        <mxCell id="DNFFxkKW47A7L2v8q61D-39" value="&lt;b&gt;2. Seq2Seq Model&lt;/b&gt;" style="text;html=1;strokeColor=none;fillColor=none;align=center;verticalAlign=middle;whiteSpace=wrap;rounded=0;" parent="1" vertex="1">
          <mxGeometry x="870" y="465" width="300" height="30" as="geometry" />
        </mxCell>
        <mxCell id="DNFFxkKW47A7L2v8q61D-41" value="&lt;h1&gt;CAPTION&lt;/h1&gt;" style="rounded=1;whiteSpace=wrap;html=1;fontFamily=Helvetica;fontSize=11;fillColor=#dae8fc;strokeColor=#6c8ebf;" parent="1" vertex="1">
          <mxGeometry x="960" y="660" width="120" height="60" as="geometry" />
        </mxCell>
        <mxCell id="DNFFxkKW47A7L2v8q61D-42" value="&lt;h1&gt;TEXT INPUT&lt;/h1&gt;" style="rounded=1;whiteSpace=wrap;html=1;fillColor=#dae8fc;strokeColor=#6c8ebf;" parent="1" vertex="1">
          <mxGeometry x="960" y="330" width="120" height="60" as="geometry" />
        </mxCell>
        <mxCell id="DNFFxkKW47A7L2v8q61D-57" value="" style="rounded=0;whiteSpace=wrap;html=1;fillColor=none;" parent="1" vertex="1">
          <mxGeometry x="1395" y="-37.5" width="480" height="487.5" as="geometry" />
        </mxCell>
        <mxCell id="DNFFxkKW47A7L2v8q61D-59" value="&lt;h1&gt;IMAGE&lt;/h1&gt;" style="rounded=1;whiteSpace=wrap;html=1;fontFamily=Helvetica;fontSize=11;fillColor=#dae8fc;strokeColor=#6c8ebf;" parent="1" vertex="1">
          <mxGeometry x="1620" y="-22.5" width="120" height="60" as="geometry" />
        </mxCell>
        <mxCell id="DNFFxkKW47A7L2v8q61D-45" value="&lt;h2&gt;YOLO&lt;/h2&gt;" style="rounded=0;whiteSpace=wrap;html=1;fillColor=#ffe6cc;strokeColor=#d79b00;" parent="1" vertex="1">
          <mxGeometry x="1500" y="97.5" width="120" height="60" as="geometry" />
        </mxCell>
        <mxCell id="DNFFxkKW47A7L2v8q61D-62" style="edgeStyle=orthogonalEdgeStyle;rounded=0;orthogonalLoop=1;jettySize=auto;html=1;exitX=0.25;exitY=1;exitDx=0;exitDy=0;entryX=0.5;entryY=0;entryDx=0;entryDy=0;" parent="1" source="DNFFxkKW47A7L2v8q61D-59" target="DNFFxkKW47A7L2v8q61D-45" edge="1">
          <mxGeometry relative="1" as="geometry" />
        </mxCell>
        <mxCell id="DNFFxkKW47A7L2v8q61D-46" value="&lt;h2&gt;Resnet-Places365&lt;/h2&gt;" style="rounded=0;whiteSpace=wrap;html=1;fillColor=#ffe6cc;strokeColor=#d79b00;" parent="1" vertex="1">
          <mxGeometry x="1740" y="97.5" width="120" height="60" as="geometry" />
        </mxCell>
        <mxCell id="DNFFxkKW47A7L2v8q61D-63" style="edgeStyle=orthogonalEdgeStyle;rounded=0;orthogonalLoop=1;jettySize=auto;html=1;exitX=0.75;exitY=1;exitDx=0;exitDy=0;entryX=0.5;entryY=0;entryDx=0;entryDy=0;" parent="1" source="DNFFxkKW47A7L2v8q61D-59" target="DNFFxkKW47A7L2v8q61D-46" edge="1">
          <mxGeometry relative="1" as="geometry" />
        </mxCell>
        <mxCell id="DNFFxkKW47A7L2v8q61D-49" value="Object" style="rounded=0;whiteSpace=wrap;html=1;fillColor=#e1d5e7;strokeColor=#9673a6;" parent="1" vertex="1">
          <mxGeometry x="1500" y="232.5" width="120" height="60" as="geometry" />
        </mxCell>
        <mxCell id="DNFFxkKW47A7L2v8q61D-50" style="edgeStyle=orthogonalEdgeStyle;rounded=0;orthogonalLoop=1;jettySize=auto;html=1;exitX=0.5;exitY=1;exitDx=0;exitDy=0;entryX=0.5;entryY=0;entryDx=0;entryDy=0;" parent="1" source="DNFFxkKW47A7L2v8q61D-45" target="DNFFxkKW47A7L2v8q61D-49" edge="1">
          <mxGeometry relative="1" as="geometry" />
        </mxCell>
        <mxCell id="DNFFxkKW47A7L2v8q61D-51" value="Scene" style="rounded=0;whiteSpace=wrap;html=1;fillColor=#b0e3e6;strokeColor=#0e8088;" parent="1" vertex="1">
          <mxGeometry x="1740" y="367.5" width="120" height="60" as="geometry" />
        </mxCell>
        <mxCell id="DNFFxkKW47A7L2v8q61D-52" style="edgeStyle=orthogonalEdgeStyle;rounded=0;orthogonalLoop=1;jettySize=auto;html=1;exitX=0.5;exitY=1;exitDx=0;exitDy=0;entryX=0.5;entryY=0;entryDx=0;entryDy=0;" parent="1" source="DNFFxkKW47A7L2v8q61D-46" target="DNFFxkKW47A7L2v8q61D-51" edge="1">
          <mxGeometry relative="1" as="geometry" />
        </mxCell>
        <mxCell id="DNFFxkKW47A7L2v8q61D-53" value="Color" style="rounded=0;whiteSpace=wrap;html=1;fillColor=#b0e3e6;strokeColor=#0e8088;" parent="1" vertex="1">
          <mxGeometry x="1590" y="367.5" width="120" height="60" as="geometry" />
        </mxCell>
        <mxCell id="DNFFxkKW47A7L2v8q61D-54" style="edgeStyle=orthogonalEdgeStyle;shape=connector;rounded=0;orthogonalLoop=1;jettySize=auto;html=1;exitX=0.75;exitY=1;exitDx=0;exitDy=0;entryX=0.5;entryY=0;entryDx=0;entryDy=0;labelBackgroundColor=default;strokeColor=default;fontFamily=Helvetica;fontSize=11;fontColor=default;endArrow=classic;" parent="1" source="DNFFxkKW47A7L2v8q61D-49" target="DNFFxkKW47A7L2v8q61D-53" edge="1">
          <mxGeometry relative="1" as="geometry" />
        </mxCell>
        <mxCell id="DNFFxkKW47A7L2v8q61D-55" value="Bounding Box" style="rounded=0;whiteSpace=wrap;html=1;fillColor=#b0e3e6;strokeColor=#0e8088;" parent="1" vertex="1">
          <mxGeometry x="1410" y="367.5" width="120" height="60" as="geometry" />
        </mxCell>
        <mxCell id="DNFFxkKW47A7L2v8q61D-56" style="rounded=0;orthogonalLoop=1;jettySize=auto;html=1;exitX=0.25;exitY=1;exitDx=0;exitDy=0;entryX=0.5;entryY=0;entryDx=0;entryDy=0;edgeStyle=orthogonalEdgeStyle;" parent="1" source="DNFFxkKW47A7L2v8q61D-49" target="DNFFxkKW47A7L2v8q61D-55" edge="1">
          <mxGeometry relative="1" as="geometry" />
        </mxCell>
        <mxCell id="DNFFxkKW47A7L2v8q61D-72" style="edgeStyle=none;shape=connector;rounded=0;orthogonalLoop=1;jettySize=auto;html=1;exitX=1;exitY=0.5;exitDx=0;exitDy=0;entryX=0;entryY=0.5;entryDx=0;entryDy=0;labelBackgroundColor=default;strokeColor=default;fontFamily=Helvetica;fontSize=11;fontColor=default;endArrow=classic;" parent="1" source="DNFFxkKW47A7L2v8q61D-71" target="DNFFxkKW47A7L2v8q61D-86" edge="1">
          <mxGeometry relative="1" as="geometry">
            <mxPoint x="369" y="594.5" as="sourcePoint" />
          </mxGeometry>
        </mxCell>
        <mxCell id="DNFFxkKW47A7L2v8q61D-85" style="edgeStyle=none;shape=connector;rounded=0;orthogonalLoop=1;jettySize=auto;html=1;exitX=0.5;exitY=1;exitDx=0;exitDy=0;entryX=0.5;entryY=0;entryDx=0;entryDy=0;labelBackgroundColor=default;strokeColor=default;fontFamily=Helvetica;fontSize=11;fontColor=default;endArrow=classic;" parent="1" source="DNFFxkKW47A7L2v8q61D-82" target="DNFFxkKW47A7L2v8q61D-84" edge="1">
          <mxGeometry relative="1" as="geometry" />
        </mxCell>
        <mxCell id="DNFFxkKW47A7L2v8q61D-100" value="" style="group" parent="1" vertex="1" connectable="0">
          <mxGeometry x="369" y="270" width="261" height="240" as="geometry" />
        </mxCell>
        <mxCell id="DNFFxkKW47A7L2v8q61D-73" value="Encoder Input" style="rounded=0;whiteSpace=wrap;html=1;fontFamily=Helvetica;fontSize=11;fontColor=default;container=0;flipH=1;flipV=1;direction=east;" parent="DNFFxkKW47A7L2v8q61D-100" vertex="1">
          <mxGeometry width="120" height="43.63636363636363" as="geometry" />
        </mxCell>
        <mxCell id="DNFFxkKW47A7L2v8q61D-74" value="&lt;h2 style=&quot;font-size: 12px;&quot;&gt;ENCODER&lt;/h2&gt;&lt;h2 style=&quot;font-size: 12px;&quot;&gt;GRU&lt;/h2&gt;" style="rounded=0;whiteSpace=wrap;html=1;fontFamily=Helvetica;fontSize=12;fillColor=#ffe6cc;strokeColor=#d79b00;container=0;flipH=1;flipV=1;direction=east;spacing=0;" parent="DNFFxkKW47A7L2v8q61D-100" vertex="1">
          <mxGeometry x="66" y="98.18181818181819" width="120" height="43.63636363636363" as="geometry" />
        </mxCell>
        <mxCell id="DNFFxkKW47A7L2v8q61D-75" style="edgeStyle=orthogonalEdgeStyle;shape=connector;rounded=0;orthogonalLoop=1;jettySize=auto;html=1;exitX=0.5;exitY=1;exitDx=0;exitDy=0;labelBackgroundColor=default;strokeColor=default;fontFamily=Helvetica;fontSize=11;fontColor=default;endArrow=classic;entryX=0.25;entryY=0;entryDx=0;entryDy=0;" parent="DNFFxkKW47A7L2v8q61D-100" source="DNFFxkKW47A7L2v8q61D-73" target="DNFFxkKW47A7L2v8q61D-74" edge="1">
          <mxGeometry relative="1" as="geometry">
            <mxPoint x="96" y="43.63636363636363" as="targetPoint" />
          </mxGeometry>
        </mxCell>
        <mxCell id="DNFFxkKW47A7L2v8q61D-76" style="shape=connector;rounded=0;orthogonalLoop=1;jettySize=auto;html=1;exitX=0.5;exitY=1;exitDx=0;exitDy=0;entryX=0.75;entryY=0;entryDx=0;entryDy=0;labelBackgroundColor=default;strokeColor=default;fontFamily=Helvetica;fontSize=11;fontColor=default;endArrow=classic;edgeStyle=orthogonalEdgeStyle;" parent="DNFFxkKW47A7L2v8q61D-100" source="DNFFxkKW47A7L2v8q61D-77" target="DNFFxkKW47A7L2v8q61D-74" edge="1">
          <mxGeometry relative="1" as="geometry" />
        </mxCell>
        <mxCell id="DNFFxkKW47A7L2v8q61D-77" value="Encoder Hidden" style="rounded=0;whiteSpace=wrap;html=1;fontFamily=Helvetica;fontSize=11;fontColor=default;container=0;flipH=1;flipV=1;direction=east;" parent="DNFFxkKW47A7L2v8q61D-100" vertex="1">
          <mxGeometry x="141" width="120" height="43.63636363636363" as="geometry" />
        </mxCell>
        <mxCell id="DNFFxkKW47A7L2v8q61D-78" style="edgeStyle=orthogonalEdgeStyle;shape=connector;rounded=0;orthogonalLoop=1;jettySize=auto;html=1;labelBackgroundColor=default;strokeColor=default;fontFamily=Helvetica;fontSize=11;fontColor=default;endArrow=classic;entryX=0;entryY=0.5;entryDx=0;entryDy=0;exitX=0;exitY=0.5;exitDx=0;exitDy=0;" parent="DNFFxkKW47A7L2v8q61D-100" source="DNFFxkKW47A7L2v8q61D-79" target="DNFFxkKW47A7L2v8q61D-73" edge="1">
          <mxGeometry relative="1" as="geometry">
            <mxPoint x="40" y="207.27272727272725" as="targetPoint" />
            <mxPoint x="-80" y="43.63636363636363" as="sourcePoint" />
          </mxGeometry>
        </mxCell>
        <mxCell id="DNFFxkKW47A7L2v8q61D-79" value="Encoder Output" style="rounded=0;whiteSpace=wrap;html=1;fontFamily=Helvetica;fontSize=11;fillColor=#f5f5f5;strokeColor=#666666;fontColor=#333333;container=0;flipH=1;flipV=1;direction=east;" parent="DNFFxkKW47A7L2v8q61D-100" vertex="1">
          <mxGeometry y="196.36363636363637" width="120" height="43.63636363636363" as="geometry" />
        </mxCell>
        <mxCell id="DNFFxkKW47A7L2v8q61D-80" style="shape=connector;rounded=0;orthogonalLoop=1;jettySize=auto;html=1;exitX=0.25;exitY=1;exitDx=0;exitDy=0;entryX=0.5;entryY=0;entryDx=0;entryDy=0;labelBackgroundColor=default;strokeColor=default;fontFamily=Helvetica;fontSize=11;fontColor=default;endArrow=classic;edgeStyle=orthogonalEdgeStyle;" parent="DNFFxkKW47A7L2v8q61D-100" source="DNFFxkKW47A7L2v8q61D-74" target="DNFFxkKW47A7L2v8q61D-79" edge="1">
          <mxGeometry relative="1" as="geometry" />
        </mxCell>
        <mxCell id="DNFFxkKW47A7L2v8q61D-81" style="edgeStyle=orthogonalEdgeStyle;shape=connector;rounded=0;orthogonalLoop=1;jettySize=auto;html=1;exitX=1;exitY=0.5;exitDx=0;exitDy=0;entryX=1;entryY=0.5;entryDx=0;entryDy=0;labelBackgroundColor=default;strokeColor=default;fontFamily=Helvetica;fontSize=11;fontColor=default;endArrow=classic;" parent="DNFFxkKW47A7L2v8q61D-100" source="DNFFxkKW47A7L2v8q61D-82" target="DNFFxkKW47A7L2v8q61D-77" edge="1">
          <mxGeometry relative="1" as="geometry" />
        </mxCell>
        <mxCell id="DNFFxkKW47A7L2v8q61D-82" value="Encoder Hidden" style="rounded=0;whiteSpace=wrap;html=1;fontFamily=Helvetica;fontSize=11;fillColor=#f5f5f5;strokeColor=#666666;fontColor=#333333;container=0;flipH=1;flipV=1;direction=east;" parent="DNFFxkKW47A7L2v8q61D-100" vertex="1">
          <mxGeometry x="141" y="196.36363636363637" width="120" height="43.63636363636363" as="geometry" />
        </mxCell>
        <mxCell id="DNFFxkKW47A7L2v8q61D-83" style="shape=connector;rounded=0;orthogonalLoop=1;jettySize=auto;html=1;entryX=0.5;entryY=0;entryDx=0;entryDy=0;labelBackgroundColor=default;strokeColor=default;fontFamily=Helvetica;fontSize=11;fontColor=default;endArrow=classic;exitX=0.75;exitY=1;exitDx=0;exitDy=0;edgeStyle=orthogonalEdgeStyle;" parent="DNFFxkKW47A7L2v8q61D-100" source="DNFFxkKW47A7L2v8q61D-74" target="DNFFxkKW47A7L2v8q61D-82" edge="1">
          <mxGeometry relative="1" as="geometry">
            <mxPoint x="201" y="196.36363636363637" as="sourcePoint" />
          </mxGeometry>
        </mxCell>
        <mxCell id="DNFFxkKW47A7L2v8q61D-95" value="Encoder Input" style="rounded=0;whiteSpace=wrap;html=1;fontFamily=Helvetica;fontSize=11;fillColor=#f5f5f5;strokeColor=#666666;fontColor=#333333;container=0;flipH=1;flipV=1;direction=east;" parent="DNFFxkKW47A7L2v8q61D-100" vertex="1">
          <mxGeometry width="120" height="43.63636363636363" as="geometry" />
        </mxCell>
        <mxCell id="DNFFxkKW47A7L2v8q61D-96" value="Encoder Hidden" style="rounded=0;whiteSpace=wrap;html=1;fontFamily=Helvetica;fontSize=11;fillColor=#f5f5f5;strokeColor=#666666;fontColor=#333333;container=0;flipH=1;flipV=1;direction=east;" parent="DNFFxkKW47A7L2v8q61D-100" vertex="1">
          <mxGeometry x="141" width="120" height="43.63636363636363" as="geometry" />
        </mxCell>
        <mxCell id="DNFFxkKW47A7L2v8q61D-101" value="" style="group" parent="1" vertex="1" connectable="0">
          <mxGeometry x="360" y="566.25" width="270" height="247.5" as="geometry" />
        </mxCell>
        <mxCell id="DNFFxkKW47A7L2v8q61D-84" value="Decoder Hidden" style="rounded=0;whiteSpace=wrap;html=1;fontFamily=Helvetica;fontSize=11;fontColor=#333333;fillColor=#f5f5f5;strokeColor=#666666;container=0;flipH=1;flipV=1;direction=east;" parent="DNFFxkKW47A7L2v8q61D-101" vertex="1">
          <mxGeometry x="145.86206896551724" width="124.13793103448276" height="45" as="geometry" />
        </mxCell>
        <mxCell id="DNFFxkKW47A7L2v8q61D-86" value="Decoder Input" style="rounded=0;whiteSpace=wrap;html=1;fontFamily=Helvetica;fontSize=11;fontColor=#333333;fillColor=#f5f5f5;strokeColor=#666666;container=0;flipH=1;flipV=1;direction=east;" parent="DNFFxkKW47A7L2v8q61D-101" vertex="1">
          <mxGeometry width="124.13793103448276" height="45" as="geometry" />
        </mxCell>
        <mxCell id="DNFFxkKW47A7L2v8q61D-87" value="&lt;h2 style=&quot;font-size: 12px;&quot;&gt;&lt;font style=&quot;font-size: 12px;&quot;&gt;DECODER&lt;/font&gt;&lt;/h2&gt;&lt;h2 style=&quot;font-size: 12px;&quot;&gt;&lt;font style=&quot;font-size: 12px;&quot;&gt;GRU&lt;/font&gt;&lt;/h2&gt;" style="rounded=0;whiteSpace=wrap;html=1;fontFamily=Helvetica;fontSize=11;fillColor=#ffe6cc;strokeColor=#d79b00;container=0;flipH=1;flipV=1;direction=east;" parent="DNFFxkKW47A7L2v8q61D-101" vertex="1">
          <mxGeometry x="68.27586206896552" y="101.25" width="124.13793103448276" height="45" as="geometry" />
        </mxCell>
        <mxCell id="DNFFxkKW47A7L2v8q61D-88" style="edgeStyle=orthogonalEdgeStyle;shape=connector;rounded=0;orthogonalLoop=1;jettySize=auto;html=1;exitX=0.5;exitY=1;exitDx=0;exitDy=0;entryX=0.75;entryY=0;entryDx=0;entryDy=0;labelBackgroundColor=default;strokeColor=default;fontFamily=Helvetica;fontSize=11;fontColor=default;endArrow=classic;" parent="DNFFxkKW47A7L2v8q61D-101" source="DNFFxkKW47A7L2v8q61D-84" target="DNFFxkKW47A7L2v8q61D-87" edge="1">
          <mxGeometry relative="1" as="geometry" />
        </mxCell>
        <mxCell id="DNFFxkKW47A7L2v8q61D-89" style="edgeStyle=orthogonalEdgeStyle;shape=connector;rounded=0;orthogonalLoop=1;jettySize=auto;html=1;exitX=0.5;exitY=1;exitDx=0;exitDy=0;entryX=0.25;entryY=0;entryDx=0;entryDy=0;labelBackgroundColor=default;strokeColor=default;fontFamily=Helvetica;fontSize=11;fontColor=default;endArrow=classic;" parent="DNFFxkKW47A7L2v8q61D-101" source="DNFFxkKW47A7L2v8q61D-86" target="DNFFxkKW47A7L2v8q61D-87" edge="1">
          <mxGeometry relative="1" as="geometry" />
        </mxCell>
        <mxCell id="DNFFxkKW47A7L2v8q61D-90" style="edgeStyle=orthogonalEdgeStyle;shape=connector;rounded=0;orthogonalLoop=1;jettySize=auto;html=1;exitX=1;exitY=0.5;exitDx=0;exitDy=0;entryX=1;entryY=0.5;entryDx=0;entryDy=0;labelBackgroundColor=default;strokeColor=default;fontFamily=Helvetica;fontSize=11;fontColor=default;endArrow=classic;" parent="DNFFxkKW47A7L2v8q61D-101" source="DNFFxkKW47A7L2v8q61D-91" target="DNFFxkKW47A7L2v8q61D-84" edge="1">
          <mxGeometry relative="1" as="geometry" />
        </mxCell>
        <mxCell id="DNFFxkKW47A7L2v8q61D-91" value="Decoder Hidden" style="rounded=0;whiteSpace=wrap;html=1;fontFamily=Helvetica;fontSize=11;fontColor=#333333;fillColor=#f5f5f5;strokeColor=#666666;container=0;flipH=1;flipV=1;direction=east;" parent="DNFFxkKW47A7L2v8q61D-101" vertex="1">
          <mxGeometry x="145.86206896551724" y="202.5" width="124.13793103448276" height="45" as="geometry" />
        </mxCell>
        <mxCell id="DNFFxkKW47A7L2v8q61D-92" style="edgeStyle=orthogonalEdgeStyle;shape=connector;rounded=0;orthogonalLoop=1;jettySize=auto;html=1;exitX=0.75;exitY=1;exitDx=0;exitDy=0;entryX=0.5;entryY=0;entryDx=0;entryDy=0;labelBackgroundColor=default;strokeColor=default;fontFamily=Helvetica;fontSize=11;fontColor=default;endArrow=classic;" parent="DNFFxkKW47A7L2v8q61D-101" source="DNFFxkKW47A7L2v8q61D-87" target="DNFFxkKW47A7L2v8q61D-91" edge="1">
          <mxGeometry relative="1" as="geometry" />
        </mxCell>
        <mxCell id="DNFFxkKW47A7L2v8q61D-93" value="Decoder Output" style="rounded=0;whiteSpace=wrap;html=1;fontFamily=Helvetica;fontSize=11;fontColor=#333333;fillColor=#f5f5f5;strokeColor=#666666;container=0;flipH=1;flipV=1;direction=east;" parent="DNFFxkKW47A7L2v8q61D-101" vertex="1">
          <mxGeometry y="202.5" width="124.13793103448276" height="45" as="geometry" />
        </mxCell>
        <mxCell id="DNFFxkKW47A7L2v8q61D-94" style="edgeStyle=orthogonalEdgeStyle;shape=connector;rounded=0;orthogonalLoop=1;jettySize=auto;html=1;exitX=0.25;exitY=1;exitDx=0;exitDy=0;entryX=0.5;entryY=0;entryDx=0;entryDy=0;labelBackgroundColor=default;strokeColor=default;fontFamily=Helvetica;fontSize=11;fontColor=default;endArrow=classic;" parent="DNFFxkKW47A7L2v8q61D-101" source="DNFFxkKW47A7L2v8q61D-87" target="DNFFxkKW47A7L2v8q61D-93" edge="1">
          <mxGeometry relative="1" as="geometry">
            <Array as="points">
              <mxPoint x="62.06896551724138" y="174" />
              <mxPoint x="99.31034482758622" y="174" />
            </Array>
          </mxGeometry>
        </mxCell>
        <mxCell id="DNFFxkKW47A7L2v8q61D-102" value="" style="group" parent="1" vertex="1" connectable="0">
          <mxGeometry x="150" y="560.63" width="189" height="48.75" as="geometry" />
        </mxCell>
        <mxCell id="DNFFxkKW47A7L2v8q61D-71" value="&lt;h1&gt;True Caption&lt;/h1&gt;" style="rounded=0;whiteSpace=wrap;html=1;fontFamily=Helvetica;fontSize=11;fontColor=default;fillColor=#dae8fc;strokeColor=#6c8ebf;container=0;flipH=1;flipV=1;direction=east;" parent="DNFFxkKW47A7L2v8q61D-102" vertex="1">
          <mxGeometry width="96.92307692307692" height="48.75" as="geometry" />
        </mxCell>
        <mxCell id="DNFFxkKW47A7L2v8q61D-97" value="&lt;font style=&quot;font-size: 16px;&quot;&gt;Teacher&lt;br&gt;Forcing&lt;/font&gt;" style="text;html=1;strokeColor=none;fillColor=none;align=center;verticalAlign=middle;whiteSpace=wrap;rounded=0;fontSize=11;fontFamily=Helvetica;fontColor=default;container=0;flipH=1;flipV=1;direction=east;" parent="DNFFxkKW47A7L2v8q61D-102" vertex="1">
          <mxGeometry x="116.3076923076923" width="72.6923076923077" height="48.75" as="geometry" />
        </mxCell>
      </root>
    </mxGraphModel>
  </diagram>
</mxfile>
